<svg width="88" height="88" viewBox="0 0 88 88" fill="none" xmlns="http://www.w3.org/2000/svg">
<path d="M19.8464 14.7136L19.8464 14.7136L19.8511 14.7181C21.2096 16.0419 21.2096 18.2781 19.8511 19.6019L19.851 19.6019L19.8464 19.6064L19.8064 19.6464C18.4417 21.0112 16.2783 21.0112 14.9136 19.6464L13.3536 18.0864L13.3536 18.0864L13.3489 18.0819C11.9929 16.7607 11.9862 14.5609 13.3535 13.1936L13.3935 13.1536L13.04 12.8L13.3936 13.1536C14.7216 11.8255 16.925 11.7921 18.2864 13.1536L19.8464 14.7136ZM8.00893 47.2601L8.00893 47.26H8H3.96C2.03614 47.26 0.5 45.7239 0.5 43.8V43.76C0.5 41.8361 2.03614 40.3 3.96 40.3H8.04C9.96058 40.3 11.5 41.8329 11.5 43.8V43.84C11.5 45.7622 9.9675 47.2951 8.00893 47.2601ZM44.0089 11.2601L44.0089 11.26H44H43.96C42.0361 11.26 40.5 9.72386 40.5 7.8V3.96C40.5 2.03942 42.0329 0.5 44 0.5H44.04C45.9639 0.5 47.5 2.03614 47.5 3.96V7.84C47.5 9.76221 45.9675 11.2951 44.0089 11.2601ZM68.1536 19.6064L68.1489 19.6019C66.7929 18.2807 66.7862 16.0809 68.1536 14.7136L69.7089 13.1581C69.7097 13.1574 69.7105 13.1566 69.7112 13.1559C71.0765 11.828 73.2817 11.8288 74.6464 13.1936C76.0112 14.5583 76.0112 16.7217 74.6464 18.0864L73.0864 19.6464L73.0819 19.6511C71.7607 21.0071 69.5609 21.0138 68.1936 19.6465L68.1536 19.6064ZM69.6736 74.4464L68.1136 72.8865C66.7521 71.525 66.7455 69.3616 68.1536 67.9536C69.4816 66.6255 71.685 66.5921 73.0464 67.9536L74.6064 69.5136C75.9712 70.8783 75.9712 73.0817 74.6064 74.4464C73.2417 75.8112 71.0383 75.8112 69.6736 74.4464ZM76.5 43.8V43.76C76.5 41.8361 78.0361 40.3 79.96 40.3H84C85.9239 40.3 87.46 41.8361 87.46 43.76V43.8C87.46 45.7239 85.9239 47.26 84 47.26H79.96C78.0361 47.26 76.5 45.7239 76.5 43.8ZM20.5 43.8C20.5 30.8361 31.0361 20.3 44 20.3C56.9639 20.3 67.5 30.8361 67.5 43.8C67.5 56.7639 56.9639 67.3 44 67.3C31.0361 67.3 20.5 56.7639 20.5 43.8ZM44 87.1H43.96C42.0361 87.1 40.5 85.5639 40.5 83.64V79.8C40.5 77.8761 42.0361 76.34 43.96 76.34H44C45.9239 76.34 47.46 77.8761 47.46 79.8V83.64C47.46 85.5639 45.9239 87.1 44 87.1ZM18.2864 74.4064C16.9217 75.7712 14.7183 75.7712 13.3536 74.4064C11.9919 73.0448 11.9842 70.8777 13.3183 69.4689L14.8736 67.9136C16.2383 66.5488 18.4417 66.5488 19.8064 67.9136L19.8464 67.9536C21.1745 69.2816 21.2079 71.485 19.8464 72.8465L18.2864 74.4064Z" stroke="black"/>
</svg>
